<svg xmlns="http://www.w3.org/2000/svg" viewBox="0 0 800 148" width="800" height="148" role="img">
  <rect width="800" height="148" fill="oklch(0.9746 0.014 70)"/>
  <g transform="translate(208 24)">
  <rect x="0" y="0" width="384" height="65" rx="6" fill="oklch(0.8866 0.0575 250)"/>
  <rect x="12" y="12" width="15.75" height="15.75" fill="none"/>
  <path transform="translate(12 12) scale(0.030760000000000003)" d="M256 512A256 256 0 1 0 256 0a256 256 0 1 0 0 512zM216 336h24V272H216c-13.3 0-24-10.7-24-24s10.7-24 24-24h48c13.3 0 24 10.7 24 24v88h8c13.3 0 24 10.7 24 24s-10.7 24-24 24H216c-13.3 0-24-10.7-24-24s10.7-24 24-24zm40-208a32 32 0 1 1 0 64 32 32 0 1 1 0-64z" fill="oklch(0.3461 0.0857 250)"/>
  <text x="43.75" y="25.4" font-family="Inter, &quot;Inter Fallback&quot;, ui-sans-serif, system-ui, sans-serif" font-size="14" font-weight="500" fill="oklch(0.3461 0.0857 250)">Info</text>
  <text x="43.75" y="49.2" font-family="Inter, &quot;Inter Fallback&quot;, ui-sans-serif, system-ui, sans-serif" font-size="12" fill="oklch(0.2194 0.0118 277.9)">Project saved</text>
  <text x="192" y="97" text-anchor="middle" font-family="ui-monospace, SFMono-Regular, Menlo, Monaco, Consolas, &quot;Liberation Mono&quot;, &quot;Courier New&quot;, monospace" font-size="12" fill="oklch(0.5006 0.0163 272.5)">the toast surface takes fg-info-strong</text>
  </g>
</svg>