<svg xmlns="http://www.w3.org/2000/svg" viewBox="0 0 800 188" width="800" height="188" role="img">
  <rect width="800" height="188" fill="oklch(0.2732 0.0115 271)"/>
  <g transform="translate(285.7 34.5)">
  <rect x="0" y="0" width="240" height="80" rx="6" fill="oklch(0.2732 0.0115 271)" stroke="oklch(0.4542 0.0132 274.7)" stroke-width="1"/>
  <rect x="17" y="14.5" width="14" height="14" fill="none"/>
  <path transform="translate(17 14.5) scale(0.02734)" d="M416 208c0 45.9-14.9 88.3-40 122.7L502.6 457.4c12.5 12.5 12.5 32.8 0 45.3s-32.8 12.5-45.3 0L330.7 376c-34.4 25.2-76.8 40-122.7 40C93.1 416 0 322.9 0 208S93.1 0 208 0S416 93.1 416 208zM208 352a144 144 0 1 0 0-288 144 144 0 1 0 0 288z" fill="oklch(0.8354 0.0018 247.8)"/>
  <text x="39" y="26.4" font-family="Inter, &quot;Inter Fallback&quot;, ui-sans-serif, system-ui, sans-serif" font-size="14" fill="oklch(0.8354 0.0018 247.8)">Search</text>
  <rect x="17" y="49.5" width="14" height="14" fill="none"/>
  <path transform="translate(17 49.5) scale(0.02734)" d="M0 416c0 17.7 14.3 32 32 32l54.7 0c12.3 28.3 40.5 48 73.3 48s61-19.7 73.3-48L480 448c17.7 0 32-14.3 32-32s-14.3-32-32-32l-246.7 0c-12.3-28.3-40.5-48-73.3-48s-61 19.7-73.3 48L32 384c-17.7 0-32 14.3-32 32zm128 0a32 32 0 1 1 64 0 32 32 0 1 1 -64 0zM320 256a32 32 0 1 1 64 0 32 32 0 1 1 -64 0zm32-80c-32.8 0-61 19.7-73.3 48L32 224c-17.7 0-32 14.3-32 32s14.3 32 32 32l246.7 0c12.3 28.3 40.5 48 73.3 48s61-19.7 73.3-48l54.7 0c17.7 0 32-14.3 32-32s-14.3-32-32-32l-54.7 0c-12.3-28.3-40.5-48-73.3-48zM192 128a32 32 0 1 1 0-64 32 32 0 1 1 0 64zm73.3-64C253 35.7 224.8 16 192 16s-61 19.7-73.3 48L32 64C14.3 64 0 78.3 0 96s14.3 32 32 32l86.7 0c12.3 28.3 40.5 48 73.3 48s61-19.7 73.3-48L480 128c17.7 0 32-14.3 32-32s-14.3-32-32-32L265.3 64z" fill="oklch(0.8354 0.0018 247.8)"/>
  <text x="39" y="61.4" font-family="Inter, &quot;Inter Fallback&quot;, ui-sans-serif, system-ui, sans-serif" font-size="14" fill="oklch(0.8354 0.0018 247.8)">Settings</text>
  <defs>
    <pattern id="hatch-padding-1-1-4-78" width="8" height="8" patternUnits="userSpaceOnUse" patternTransform="rotate(45)">
      <rect width="8" height="8" fill="oklch(0.7449 0.1231 74.5)" fill-opacity="0.2"/>
      <line x1="0" y1="0" x2="0" y2="8" stroke="oklch(0.7449 0.1231 74.5)" stroke-width="1" stroke-opacity="0.5"/>
    </pattern>
  </defs>
  <rect x="1" y="1" width="4" height="78" fill="url(#hatch-padding-1-1-4-78)"/>
  <rect x="1" y="1" width="4" height="78" fill="none" stroke="oklch(0.7449 0.1231 74.5)" stroke-width="1" stroke-dasharray="3 2" stroke-opacity="0.75"/>
  <rect x="236" y="25" width="7" height="30" rx="9" fill="none" stroke="oklch(0.5068 0.1689 141.7)" stroke-width="1" stroke-dasharray="3 2" opacity="0.75"/>
  <text x="120" y="116" text-anchor="middle" font-family="ui-monospace, SFMono-Regular, Menlo, Monaco, Consolas, &quot;Liberation Mono&quot;, &quot;Courier New&quot;, monospace" font-size="12" fill="oklch(0.6996 0.0014 286.4)">pt:content:class="p-0! min-w-60"</text>
  <circle cx="1" cy="40" r="2" fill="oklch(0.6996 0.0014 286.4)"/>
  <path d="M 1 40 L -16 40" stroke="oklch(0.6996 0.0014 286.4)" stroke-width="1" fill="none"/>
  <text x="-24" y="44.2" text-anchor="end" font-family="ui-monospace, SFMono-Regular, Menlo, Monaco, Consolas, &quot;Liberation Mono&quot;, &quot;Courier New&quot;, monospace" font-size="12" fill="oklch(0.6996 0.0014 286.4)">p-0! leaves only the menu's p-1</text>
  <circle cx="243" cy="40" r="2" fill="oklch(0.6996 0.0014 286.4)"/>
  <path d="M 243 40 L 259 40" stroke="oklch(0.6996 0.0014 286.4)" stroke-width="1" fill="none"/>
  <text x="267" y="44.2" text-anchor="start" font-family="Inter, &quot;Inter Fallback&quot;, ui-sans-serif, system-ui, sans-serif" font-size="12" font-weight="500" fill="oklch(0.6996 0.0014 286.4)">the popover brings the border</text>
  </g>
</svg>